<?xml version="1.0" encoding="UTF-8" standalone="no"?>
<!DOCTYPE svg PUBLIC "-//W3C//DTD SVG 1.1//EN" "http://www.w3.org/Graphics/SVG/1.1/DTD/svg11.dtd">
<svg width="100%" height="100%" viewBox="0 0 72 72" version="1.1" xmlns="http://www.w3.org/2000/svg" xmlns:xlink="http://www.w3.org/1999/xlink" xml:space="preserve" xmlns:serif="http://www.serif.com/" style="fill-rule:evenodd;clip-rule:evenodd;stroke-linecap:round;stroke-miterlimit:2;">
    <rect id="Artboard1" x="0" y="0" width="72" height="72" style="fill:none;"/>
    <clipPath id="_clip1">
        <rect id="Artboard11" serif:id="Artboard1" x="0" y="0" width="72" height="72"/>
    </clipPath>
    <g clip-path="url(#_clip1)">
        <g id="Layer1">
            <g transform="matrix(1.01357,0,0,1.06481,12.24,1.93519)">
                <g transform="matrix(1,0,0,0.885477,-12,0.114767)">
                    <path d="M27.994,19.987C27.603,18.62 27.766,19.405 27.766,17.932C27.766,8.271 36.962,1 48,1C59.046,1 68,8.837 68,18.504" style="fill:none;stroke:rgb(174,120,231);stroke-width:4.26px;"/>
                </g>
                <g transform="matrix(1,0,0,0.885477,-12,0.114767)">
                    <path d="M43.115,35.89C39.443,35.717 37.748,34.671 36.124,33.633C34.552,32.63 33.019,31.676 31.452,29.069" style="fill:none;stroke:rgb(49,33,78);stroke-width:4.26px;"/>
                </g>
                <g transform="matrix(1,0,0,0.885477,-12,0.114767)">
                    <path d="M52.01,36.927C61.693,38.148 68,44.701 68,53.514C68,63.175 59.038,71.018 48,71.018C36.954,71.018 28,63.181 28,53.514" style="fill:none;stroke:rgb(174,120,231);stroke-width:4.26px;"/>
                </g>
            </g>
            <g transform="matrix(1.01357,0,0,1.06481,-13.2171,1.93519)">
                <g transform="matrix(1,0,0,0.885477,12,0.114767)">
                    <path d="M19.786,35.999C10.296,34.633 4,27.197 4,18.504C4,8.843 12.962,1 24,1C35.046,1 44,8.837 44,18.504" style="fill:none;stroke:rgb(174,120,231);stroke-width:4.26px;"/>
                </g>
                <g transform="matrix(1,0,0,0.885477,12,0.114767)">
                    <path d="M43.71,52.296C44.121,53.694 44,53.451 44,54.961C44,64.622 35.038,71.018 24,71.018C12.954,71.018 4,63.181 4,53.514" style="fill:none;stroke:rgb(174,120,231);stroke-width:4.26px;"/>
                </g>
                <g transform="matrix(1,0,0,0.885477,12,0.114767)">
                    <path d="M29.158,37.238C34.705,37.518 39.072,41.877 39.83,43.196" style="fill:none;stroke:rgb(49,33,78);stroke-width:4.26px;"/>
                </g>
            </g>
        </g>
        <g transform="matrix(0.942857,0,0,0.942869,8.65714,8.65747)">
            <g id="Layer3">
                <circle cx="29" cy="29" r="13" style="fill:none;stroke:rgb(49,33,78);stroke-width:4.42px;stroke-linejoin:round;stroke-miterlimit:1.5;"/>
            </g>
        </g>
    </g>
</svg>
